<?xml version="1.0" standalone="no"?>
<!DOCTYPE svg PUBLIC "-//W3C//DTD SVG 20010904//EN"
 "http://www.w3.org/TR/2001/REC-SVG-20010904/DTD/svg10.dtd">
<svg version="1.0" xmlns="http://www.w3.org/2000/svg"
 width="64.000000pt" height="64.000000pt" viewBox="0 0 64.000000 64.000000"
 preserveAspectRatio="xMidYMid meet">

<g transform="translate(0.000000,64.000000) scale(0.100000,-0.100000)"
fill="#000000" stroke="none">
<path d="M25 615 l-25 -24 0 -271 0 -271 25 -24 24 -25 271 0 271 0 24 25 25
24 0 271 0 271 -25 24 -24 25 -271 0 -271 0 -24 -25z m446 -91 c49 -25 69 -81
69 -201 0 -122 -16 -173 -65 -203 -28 -17 -49 -20 -155 -20 -106 0 -127 3
-155 20 -52 32 -65 72 -65 200 0 128 14 170 64 201 42 26 260 28 307 3z"/>
<path d="M193 490 c-39 -16 -53 -60 -53 -170 0 -113 14 -154 56 -170 41 -16
221 -12 254 5 37 19 50 64 49 170 0 96 -15 145 -49 162 -29 15 -223 17 -257 3z
m274 -36 c3 -8 -2 -23 -11 -32 -14 -15 -18 -15 -31 -1 -9 9 -13 23 -9 32 8 21
43 22 51 1z m-90 -34 c101 -61 60 -210 -57 -210 -117 0 -158 149 -58 210 41
25 74 25 115 0z"/>
<path d="M267 372 c-23 -25 -21 -78 3 -102 26 -26 74 -26 100 0 26 26 26 81 2
103 -25 23 -85 22 -105 -1z"/>
</g>
</svg>
