<?xml version="1.0" standalone="no"?>
<!DOCTYPE svg PUBLIC "-//W3C//DTD SVG 20010904//EN"
 "http://www.w3.org/TR/2001/REC-SVG-20010904/DTD/svg10.dtd">
<svg version="1.0" xmlns="http://www.w3.org/2000/svg"
 width="64.000000pt" height="64.000000pt" viewBox="0 0 64.000000 64.000000"
 preserveAspectRatio="xMidYMid meet">

<g transform="translate(0.000000,64.000000) scale(0.100000,-0.100000)"
fill="#000000" stroke="none">
<path d="M25 615 l-25 -24 0 -271 0 -271 25 -24 24 -25 271 0 271 0 24 25 25
24 0 271 0 271 -25 24 -24 25 -271 0 -271 0 -24 -25z m448 -147 c30 -1 33 -8
15 -27 -11 -10 -9 -11 7 -5 19 7 19 6 4 -12 -9 -10 -19 -39 -23 -62 -13 -85
-67 -157 -143 -189 -41 -16 -129 -16 -168 1 l-30 13 40 12 c50 14 79 31 54 31
-24 0 -67 40 -51 47 9 3 5 12 -13 30 -29 29 -33 53 -8 53 15 0 15 1 0 18 -18
19 -24 82 -8 82 5 0 14 -7 22 -16 17 -20 75 -50 117 -59 30 -6 32 -5 32 21 0
15 10 38 23 52 19 20 28 23 62 17 22 -3 52 -6 68 -7z"/>
</g>
</svg>
